PathFileType  4	(X/Y/Z) C:\Users\antoi\Documents\MyRepositories\mobilecap\ResultsAnalysis
DataRate	CameraRate	NumFrames	NumMarkers	Units	OrigDataRate	OrigDataStartFrame	OrigNumFrames
100.0	100.0	6	51	mm	100.0	1	132
Frame#	Time	r_knee			r_shank_antsup			r_ankle			r_calc			r_5meta			r_toe			L_knee			L_shank_antsup			L_ankle			L_calc			L_5meta			L_toe			r_sh2			r_sh3			r_sh4			L_sh2			L_sh3			r_thigh1			r_thigh2			r_thigh3			r_thigh4			r_thigh5			L_thigh1			L_thigh2			L_thigh3			L_thigh4			r.ASIS			r.PSIS			L.ASIS			L.PSIS			C7			R_Shoulder			L_Shoulder			R_Sternum			L_Sternum			R_humerus			R_elbow_med			R_elbow_lat			R_forearm			R_wrist_radius			R_wrist_ulna			L_humerus			L_elbow_med			L_elbow_lat			L_forearm			L_wrist_radius			L_wrist_ulna			R_HJC			L_HJC			R_HJC_reg			L_HJC_reg			
		X1	Y1	Z1	X2	Y2	Z2	X3	Y3	Z3	X4	Y4	Z4	X5	Y5	Z5	X6	Y6	Z6	X7	Y7	Z7	X8	Y8	Z8	X9	Y9	Z9	X10	Y10	Z10	X11	Y11	Z11	X12	Y12	Z12	X13	Y13	Z13	X14	Y14	Z14	X15	Y15	Z15	X16	Y16	Z16	X17	Y17	Z17	X18	Y18	Z18	X19	Y19	Z19	X20	Y20	Z20	X21	Y21	Z21	X22	Y22	Z22	X23	Y23	Z23	X24	Y24	Z24	X25	Y25	Z25	X26	Y26	Z26	X27	Y27	Z27	X28	Y28	Z28	X29	Y29	Z29	X30	Y30	Z30	X31	Y31	Z31	X32	Y32	Z32	X33	Y33	Z33	X34	Y34	Z34	X35	Y35	Z35	X36	Y36	Z36	X37	Y37	Z37	X38	Y38	Z38	X39	Y39	Z39	X40	Y40	Z40	X41	Y41	Z41	X42	Y42	Z42	X43	Y43	Z43	X44	Y44	Z44	X45	Y45	Z45	X46	Y46	Z46	X47	Y47	Z47	X48	Y48	Z48	X49	Y49	Z49	X50	Y50	Z50	X51	Y51	Z51	

1	0.00000000	-131.65440	494.95867	-75.09141	-80.68323	472.62309	-86.75931	6.80706	116.89534	-112.04480	-29.36353	60.30416	-163.41552	151.61744	114.29560	-79.08185	171.32086	159.84090	-131.48395	-440.30968	477.21508	-368.74108	-442.41559	384.61955	-373.66306	-592.09772	100.77813	-304.11304	-659.46050	68.96726	-249.54251	-484.09376	37.69854	-330.24392	-436.70021	53.60264	-278.20796	-35.69717	367.22335	-100.39083	-139.06483	440.66280	-43.27260	-95.33022	334.75494	-43.30845	-523.70318	421.42226	-383.58794	-565.77602	307.96732	-370.12432	-178.52784	786.78764	-145.45403	-127.19327	688.69320	-138.30594	-127.61480	668.48328	-72.22857	-227.50455	769.65527	-43.85034	-173.57952	670.12482	-37.14660	-318.86491	782.57297	-400.62278	-350.21825	643.88829	-397.63014	-429.43715	805.48112	-395.96147	-460.68241	674.81846	-372.28241	-225.75033	934.69692	-113.19551	-428.22308	964.56632	-155.58704	-257.38749	921.30461	-346.54569	-441.77109	971.13025	-252.14684	-375.97972	1436.60925	-234.64475	-310.22958	1402.36609	-74.23809	-314.44002	1389.98292	-393.15383	-260.59361	1339.96589	-220.78273	-264.35983	1335.56748	-256.58845	-359.33752	1171.02493	17.47413	-439.75027	1098.16213	-11.11382	-407.15297	1093.27543	42.44371	-380.85035	953.08390	66.55203	-370.98662	847.77101	56.41714	-408.90524	855.93531	90.85067	-264.56774	1171.17024	-477.30816	-285.84202	1052.26071	-444.85451	-259.90043	1067.76215	-497.04036	-128.42459	998.04963	-487.90139	-42.06084	944.64770	-446.43198	-60.35605	915.42496	-473.05452	-304.85235	851.68505	-133.23315	-345.10040	855.22586	-319.57440	-297.47150	848.83890	-141.24450	-319.05232	859.29475	-295.05715	
2	0.01000000	-117.51575	492.29776	-74.04195	-67.03457	470.57573	-85.08989	29.52450	116.99210	-112.35461	-4.71712	59.05797	-163.91710	174.52591	118.44909	-79.64430	192.54042	165.28030	-131.71034	-430.98012	475.39609	-368.54451	-434.60039	382.91457	-373.53492	-590.88944	102.11954	-304.49086	-658.87721	71.24744	-249.93429	-483.90179	37.51187	-330.34082	-436.32500	52.92822	-278.48130	-18.91842	366.39603	-99.40090	-124.53521	437.22592	-42.79507	-78.69919	332.33436	-43.23941	-515.22893	421.47901	-383.49843	-559.69175	308.65146	-370.45632	-163.04176	784.36831	-145.72218	-111.84887	686.35956	-137.83911	-112.13188	666.49707	-71.71267	-211.13617	768.50403	-43.94133	-158.24381	668.16754	-36.72993	-307.41758	779.87881	-400.64892	-339.84869	641.47713	-397.94114	-417.82821	803.54770	-394.68905	-449.77324	672.89242	-371.45964	-210.27950	931.20466	-113.66979	-413.24243	961.47708	-153.92021	-244.28234	918.31808	-346.97368	-427.76695	967.99619	-250.33085	-361.93373	1433.56692	-233.24186	-295.29489	1399.31118	-72.95146	-301.09625	1386.59508	-392.03335	-246.16240	1336.64099	-219.63560	-250.31385	1332.26901	-255.55627	-346.68721	1168.27404	18.37195	-427.25854	1095.89066	-11.04493	-395.41571	1090.91585	42.81286	-371.10534	950.66318	67.76720	-362.69743	845.10401	58.12018	-400.66010	853.92627	92.08471	-250.02027	1168.37064	-476.18683	-269.68495	1049.14282	-443.73058	-243.78099	1064.44364	-496.35338	-111.48172	997.46700	-486.60576	-24.32486	945.78766	-445.00072	-41.81727	916.09137	-471.90496	-289.67140	848.33299	-133.12386	-331.85430	852.24288	-319.00843	-282.45803	845.69854	-140.98003	-305.62242	856.09497	-294.73459	
3	0.02000000	-102.97175	489.76320	-73.19004	-52.95345	468.43177	-83.64571	50.76168	116.49515	-112.67357	18.15191	57.46904	-164.45144	195.90390	121.31124	-80.05169	212.55932	169.22616	-131.81741	-421.37602	473.57945	-368.27499	-426.56849	381.20210	-373.35723	-589.56489	103.63347	-304.86941	-658.18431	73.77508	-250.33794	-483.68430	37.32497	-330.44303	-435.90835	52.23423	-278.75225	-2.27197	365.25649	-98.58684	-109.72101	434.01098	-42.47386	-62.22101	329.90291	-43.24118	-506.46453	421.56348	-383.33465	-553.40832	309.46202	-370.72234	-147.51751	782.18324	-145.85122	-96.30185	684.32519	-137.38650	-96.44783	664.71716	-71.22313	-194.82562	767.30507	-43.91981	-142.71220	666.33065	-36.34653	-295.78424	777.19939	-400.57417	-329.23780	639.06490	-398.12180	-406.01385	801.59039	-393.33482	-438.62657	670.98429	-370.52644	-194.73956	927.84086	-114.08080	-398.16717	958.44880	-152.27411	-231.06565	915.33135	-347.32965	-413.63052	964.87397	-248.54974	-347.80751	1430.58511	-231.83217	-280.34759	1396.32627	-71.65083	-287.68927	1383.28295	-390.88415	-231.66062	1333.37432	-218.45715	-236.19872	1329.03728	-254.49276	-333.94572	1165.57688	19.27259	-414.67110	1093.65724	-10.96506	-383.56675	1088.59845	43.19582	-361.18027	948.28160	68.94417	-354.13610	842.50966	59.76517	-392.16184	851.94098	93.25956	-235.54097	1165.60371	-475.00202	-253.67295	1046.08452	-442.49198	-227.85977	1061.21469	-495.53359	-94.79712	996.82806	-485.29667	-6.82087	946.77884	-443.60511	-23.54613	916.60835	-470.71276	-274.39486	845.08167	-132.93591	-318.45894	849.25396	-318.37297	-267.36128	842.65206	-140.63577	-292.04923	852.90946	-294.34327	
4	0.03000000	-87.70948	487.45489	-72.69275	-38.07957	466.12778	-82.60579	69.37238	114.97808	-113.01124	37.84570	55.34499	-165.03452	214.57071	121.87335	-80.21343	230.46607	170.50580	-131.74591	-411.26433	471.76364	-367.87154	-418.14187	379.47072	-373.09044	-588.02436	105.47153	-305.24764	-657.28367	76.76433	-250.76028	-483.40978	37.13770	-330.55073	-435.41438	51.50832	-279.01530	14.13142	363.55845	-98.09848	-94.40256	431.19043	-42.43896	-46.03080	327.44909	-43.38152	-497.16888	421.70499	-383.03388	-546.75199	310.50429	-370.86913	-131.90997	780.39690	-145.73137	-80.40275	682.79550	-136.96093	-80.41187	663.27654	-70.78489	-178.58688	766.02218	-43.69690	-126.83786	664.68378	-36.01920	-283.80388	774.54678	-400.31534	-318.18163	636.65259	-398.06426	-393.81766	799.59386	-391.83903	-427.04801	669.10116	-369.39014	-179.06689	924.71205	-114.36480	-382.92069	955.53655	-150.67201	-217.62843	912.35016	-347.54686	-399.24857	961.78900	-246.83256	-333.54016	1427.71347	-230.40856	-265.37396	1393.47086	-70.32381	-274.15528	1380.11467	-389.68145	-217.04821	1330.22369	-217.22617	-221.95473	1325.93273	-253.37408	-321.04103	1162.98204	20.18052	-401.90382	1091.49634	-10.86714	-371.51430	1086.36052	43.60204	-350.92307	945.98037	70.05517	-345.06936	840.05042	61.30638	-383.19629	850.00376	94.32676	-221.18026	1162.89541	-473.70332	-237.93294	1043.13532	-441.05010	-212.30122	1058.14155	-494.48182	-78.57745	996.08220	-483.96469	10.25315	947.49718	-442.27477	-5.78446	916.86122	-469.45791	-258.94527	842.01745	-132.60140	-304.78104	846.26405	-317.61122	-252.10678	839.76870	-140.14743	-278.20134	849.75984	-293.82942	
5	0.04000000	-71.58860	485.43121	-72.63455	-22.20721	463.65552	-82.07152	84.76269	112.29909	-113.38088	53.60469	52.74258	-165.66496	229.91683	119.61175	-80.14078	245.81560	168.49801	-131.52724	-400.48095	469.94128	-367.29550	-409.20081	377.70811	-372.71467	-586.18833	107.75065	-305.62416	-656.08951	80.37862	-251.20206	-483.04011	36.95241	-330.65731	-434.81761	50.74786	-279.26263	30.20512	361.17767	-98.03547	-78.48227	428.85407	-42.76626	-30.23891	324.96775	-43.71897	-487.17911	421.93389	-382.55598	-539.58909	311.85074	-370.86496	-116.17224	779.06778	-145.30645	-64.09712	681.83100	-136.57417	-63.96558	662.19900	-70.41994	-162.38227	764.63955	-43.22615	-110.55947	663.22570	-35.75855	-271.36406	771.93237	-399.81885	-306.54091	634.24612	-397.70094	-381.12101	797.55673	-390.17608	-414.91253	667.23458	-367.99159	-163.21964	921.88948	-114.46113	-367.46134	952.78906	-149.13539	-203.87620	909.39501	-347.56705	-384.55064	958.78992	-245.19774	-319.10979	1424.98751	-228.96364	-250.36847	1390.78979	-68.96011	-260.44180	1377.14777	-388.40888	-202.33898	1327.24655	-215.93562	-207.54636	1323.00831	-252.18749	-307.93748	1160.52989	21.10241	-388.89970	1089.43649	-10.74888	-359.20413	1084.23193	44.03491	-340.23160	943.80049	71.08724	-335.33399	837.77148	62.71639	-373.61721	848.13788	95.25495	-206.97105	1160.26273	-472.26420	-222.56921	1040.32931	-439.36069	-197.22334	1055.25295	-493.15488	-62.95554	995.18562	-482.60797	26.74479	947.85729	-441.02951	11.26846	916.78376	-468.14982	-243.28384	839.20445	-132.07122	-290.72502	843.29998	-316.68745	-236.64254	837.08587	-139.47423	-263.98248	846.68385	-293.15780	
6	0.05000000	-54.66365	483.70538	-73.01311	-5.33555	461.06093	-82.06878	96.95209	108.62625	-113.80677	65.38716	49.97917	-166.34146	241.95061	114.53355	-79.94910	258.66568	163.18600	-131.27870	-388.92366	468.09780	-366.53322	-399.66892	375.90787	-372.23516	-583.98880	110.55306	-306.00262	-654.52153	84.73789	-251.66152	-482.53866	36.77591	-330.75248	-434.10540	49.95249	-279.48994	45.89491	358.14061	-98.43298	-61.99311	426.99855	-43.45777	-14.90935	322.46979	-44.29728	-476.39994	422.28094	-381.88769	-531.82079	313.54635	-370.69968	-100.24625	778.15452	-144.58492	-47.41707	681.35211	-136.23773	-47.14081	661.40791	-70.14540	-146.12812	763.16250	-42.51187	-93.89097	661.89728	-35.57153	-258.39655	769.36824	-399.06116	-294.23369	631.85545	-397.01074	-367.86260	795.48863	-388.34907	-402.14960	665.36133	-366.31036	-147.17540	919.40253	-114.31999	-351.77047	950.25057	-147.67162	-189.72613	906.50488	-347.34211	-369.50742	955.94563	-243.64734	-304.52577	1422.42981	-227.48787	-235.32828	1388.31182	-67.54837	-246.50878	1374.42547	-387.05984	-187.58635	1324.49580	-214.58713	-192.95718	1320.30953	-250.92788	-294.62646	1158.24833	22.04838	-375.62553	1087.49643	-10.60923	-346.61188	1082.23196	44.49471	-329.04832	941.77296	72.04110	-324.83846	835.69328	63.98501	-363.34225	846.35806	96.03087	-192.92762	1157.71156	-470.68495	-207.65216	1037.68084	-437.42600	-182.68941	1052.53597	-491.56598	-47.98290	994.09577	-481.23255	42.55976	947.81166	-439.87682	27.48335	916.34632	-466.81431	-227.40340	836.68054	-131.31738	-276.23376	840.41295	-315.58733	-220.93182	834.61921	-138.59519	-249.33826	843.73666	-292.30141	
